<?xml version="1.0" encoding="iso-8859-1"?>
<!-- Generator: Adobe Illustrator 19.0.0, SVG Export Plug-In . SVG Version: 6.00 Build 0)  -->
<svg version="1.1" id="Layer_1" xmlns="http://www.w3.org/2000/svg" xmlns:xlink="http://www.w3.org/1999/xlink" x="0px" y="0px"
	 viewBox="0 0 512.001 512.001" style="enable-background:new 0 0 512.001 512.001;" xml:space="preserve">
<path style="fill:#A3E261;" d="M503.472,165.461c0,0-71.274,141.578-216.284,59.325c0,0,49.242-49.242,127.282-62.158
	C441.064,158.21,471,158.031,503.472,165.461z"/>
<path style="fill:#23B75F;" d="M414.47,162.628c-78.04,12.916-127.282,62.158-127.282,62.158s49.242-49.242,62.158-127.282
	c25.203-11.114,53.087-17.29,82.414-17.29C431.76,109.542,425.584,137.425,414.47,162.628z"/>
<path style="fill:#A3E261;" d="M349.347,97.499c-12.917,78.047-62.161,127.291-62.161,127.291
	C205.422,80.639,344.803,9.367,346.503,8.518l0.011-0.011C353.947,40.981,353.766,70.917,349.347,97.499z"/>
<path style="fill:#F94848;" d="M287.191,224.786c0,0,81.999,45.977,55.842,162.573C317.758,500.02,57.159,523.073,23.032,488.945
	c-34.128-34.128-11.075-294.727,101.586-320.001C241.213,142.786,287.191,224.786,287.191,224.786z"/>
<path style="fill:#DD2C2C;" d="M124.617,168.946C12.82,194.027-10.731,450.816,22.252,488.11c0.253,0.29,0.512,0.568,0.78,0.835
	c12.255,12.255,53.721,17.137,103.005,13.142c-20.174-2.091-35.227-6.548-41.821-13.142c-17.269-17.269-19.895-92.528-3.679-165.941
	c26.634-44.713,59.906-85.488,95.169-102.969c58.313-28.914,86.994-20.704,100.474-9.967
	C256.453,187.777,209.066,149.999,124.617,168.946z"/>
<path style="fill:#93CC52;" d="M287.185,224.79C205.422,80.639,344.803,9.367,346.503,8.518
	C345.449,10.297,270.982,137.089,287.185,224.79z"/>
<g>
	<circle style="fill:#DD2C2C;" cx="239.864" cy="323.974" r="21.113"/>
	<circle style="fill:#DD2C2C;" cx="208.704" cy="404.163" r="21.113"/>
	<circle style="fill:#DD2C2C;" cx="79.171" cy="385.467" r="21.113"/>
	<circle style="fill:#DD2C2C;" cx="157.353" cy="356.573" r="21.113"/>
	<circle style="fill:#DD2C2C;" cx="295.012" cy="371.87" r="21.113"/>
	<circle style="fill:#DD2C2C;" cx="109.763" cy="303.885" r="21.113"/>
	<circle style="fill:#DD2C2C;" cx="190.801" cy="268.317" r="21.113"/>
	<circle style="fill:#DD2C2C;" cx="130.159" cy="436.456" r="21.113"/>
</g>
<path d="M224.213,474.339c-37.79,12.197-82.659,19.682-123.103,20.537c-29.313,0.616-62.962-2.832-72.069-11.938
	c-14.695-14.695-19.039-100.503,5.303-184.407c11.662-40.195,39.138-109.403,92.135-121.294c4.58-1.028,7.459-5.573,6.431-10.151
	c-1.028-4.58-5.576-7.461-10.151-6.431c-24.866,5.578-47.012,21.722-65.822,47.984c-15.849,22.127-28.942,50.778-38.916,85.158
	C6.894,332.144,0.339,376.525,0.036,415.556c-0.18,23.13,1.788,64.2,16.986,79.399c11.439,11.439,40.532,17.046,76.727,17.046
	c41.213,0,91.634-7.271,135.684-21.489c4.467-1.441,6.919-6.231,5.477-10.698C233.469,475.348,228.68,472.894,224.213,474.339z"/>
<path d="M511.167,161.838c-1.112-2.362-3.25-4.084-5.796-4.666c-68.402-15.633-125.663,1.895-161.654,19.352
	c-6.312,3.062-12.189,6.216-17.622,9.357c3.141-5.433,6.295-11.309,9.358-17.622c8.303-17.119,16.616-39.059,21.376-64.712
	c21.094-8.745,43.321-13.659,66.245-14.649c-0.657,15.021-3.017,29.869-7.042,44.249c-1.265,4.52,1.374,9.209,5.893,10.474
	c0.767,0.214,1.536,0.316,2.294,0.316c3.715,0,7.129-2.457,8.18-6.21c5.216-18.637,7.86-37.988,7.86-57.514
	c0-4.693-3.804-8.498-8.498-8.498c-24.883,0-49.084,4.224-72.147,12.544c2.428-23.559,1.587-49.674-4.809-77.656
	c-0.582-2.546-2.302-4.683-4.666-5.796c-2.361-1.11-5.106-1.075-7.439,0.099c-0.398,0.199-9.859,4.999-22.501,14.482
	c-3.754,2.817-4.514,8.144-1.697,11.897c2.815,3.754,8.142,4.516,11.897,1.699c3.768-2.827,7.226-5.195,10.167-7.099
	c8.287,46.942,1.534,93.445-20.134,138.392c-11.073,22.972-23.65,40.093-31.517,49.695c-22.738-45.426-34.342-107.548,21.7-163.828
	c3.312-3.326,3.301-8.707-0.025-12.018c-3.328-3.312-8.709-3.301-12.018,0.025c-22.496,22.592-36.854,48.091-42.674,75.789
	c-4.971,23.658-3.523,48.454,4.259,74.1c-20.859-15.305-56-32.205-106.711-28.121c-4.677,0.376-8.165,4.475-7.789,9.153
	c0.376,4.677,4.47,8.164,9.153,7.789c36.927-2.973,69.134,5.502,95.721,25.193c19.967,14.789,29.17,30.748,29.248,30.886
	c0.757,1.35,1.89,2.479,3.235,3.244c0.193,0.11,19.419,11.213,35.272,35.54c21.165,32.478,26.701,72.102,16.455,117.771
	c-9.024,40.225-51.409,65.497-85.378,79.614c-4.334,1.802-6.387,6.775-4.586,11.109c1.359,3.268,4.52,5.239,7.851,5.239
	c1.087,0,2.193-0.21,3.258-0.653c54.034-22.457,87.036-54.128,95.44-91.589c14.166-63.146-2.684-106.394-19.315-131.556
	c-1.337-2.023-2.692-3.958-4.058-5.817c15.662,4.757,30.996,7.15,45.948,7.15c13.493,0,26.681-1.942,39.512-5.83
	c64.662-19.593,96.337-81.272,97.655-83.887C512.243,166.945,512.279,164.202,511.167,161.838z M408.342,236.943
	c-32.708,9.867-68.442,5.193-106.364-13.878c9.49-7.787,26.369-20.195,49.156-31.247c31.489-15.274,80.429-30.613,138.916-20.4
	C478.803,188.688,451.389,223.958,408.342,236.943z"/>
<path d="M143.57,200.794l-13.444,13.443c-3.319,3.319-3.319,8.699,0,12.018c1.659,1.66,3.834,2.489,6.009,2.489
	c2.174,0,4.35-0.829,6.009-2.489l13.444-13.443c3.319-3.319,3.319-8.699,0-12.018C152.27,197.475,146.889,197.475,143.57,200.794z"
	/>
<path d="M195.435,252.659l-13.444,13.444c-3.319,3.319-3.319,8.7,0,12.018c1.659,1.659,3.834,2.489,6.009,2.489
	s4.35-0.829,6.009-2.489l13.444-13.444c3.319-3.319,3.319-8.7,0-12.018C204.135,249.34,198.754,249.34,195.435,252.659z"/>
<path d="M297.739,381.851l13.444-13.444c3.32-3.319,3.32-8.699,0.001-12.018c-3.319-3.319-8.7-3.319-12.018,0l-13.444,13.444
	c-3.32,3.319-3.32,8.699-0.001,12.018c1.66,1.66,3.834,2.489,6.01,2.489C293.905,384.341,296.08,383.51,297.739,381.851z"/>
<path d="M259.318,316.542c3.319-3.319,3.319-8.7,0-12.018c-3.32-3.32-8.7-3.319-12.018,0l-13.443,13.444
	c-3.319,3.319-3.319,8.7,0,12.018c1.659,1.66,3.834,2.489,6.009,2.489s4.35-0.829,6.009-2.489L259.318,316.542z"/>
<path d="M123.712,284.534c-3.319-3.319-8.7-3.319-12.018,0l-13.444,13.444c-3.319,3.319-3.319,8.7,0,12.018
	c1.659,1.659,3.834,2.489,6.009,2.489c2.174,0,4.35-0.829,6.009-2.489l13.444-13.444
	C127.031,293.233,127.031,287.852,123.712,284.534z"/>
<path d="M201.982,413.726c1.659,1.66,3.834,2.489,6.009,2.489s4.35-0.829,6.009-2.489l13.443-13.444c3.319-3.319,3.319-8.7,0-12.018
	c-3.319-3.32-8.7-3.319-12.018,0l-13.443,13.444C198.663,405.027,198.663,410.409,201.982,413.726z"/>
<path d="M150.116,361.861c1.659,1.659,3.834,2.489,6.009,2.489c2.174,0,4.35-0.829,6.009-2.489l13.444-13.444
	c3.319-3.319,3.319-8.7,0-12.018c-3.319-3.319-8.7-3.319-12.018,0l-13.444,13.444C146.797,353.161,146.797,358.543,150.116,361.861z
	"/>
<path d="M124.249,448.091c2.174,0,4.35-0.829,6.009-2.489l13.444-13.444c3.319-3.319,3.319-8.7,0-12.018
	c-3.319-3.319-8.7-3.319-12.018,0l-13.444,13.444c-3.319,3.319-3.319,8.7,0,12.018C119.9,447.261,122.075,448.091,124.249,448.091z"
	/>
<path d="M79.819,368.275l-13.444,13.444c-3.319,3.319-3.319,8.7,0,12.018c1.659,1.659,3.834,2.489,6.009,2.489
	c2.174,0,4.35-0.829,6.009-2.489l13.444-13.444c3.319-3.319,3.319-8.7,0-12.018C88.519,364.956,83.138,364.956,79.819,368.275z"/>
<g>
</g>
<g>
</g>
<g>
</g>
<g>
</g>
<g>
</g>
<g>
</g>
<g>
</g>
<g>
</g>
<g>
</g>
<g>
</g>
<g>
</g>
<g>
</g>
<g>
</g>
<g>
</g>
<g>
</g>
</svg>
