<svg height="512" viewBox="0 0 128 128" width="512" xmlns="http://www.w3.org/2000/svg"><g><g><g fill="#aac348"><path d="m23.431 107.271h9.991v12.488h-9.991z" transform="matrix(.813 .582 -.582 .813 71.432 4.684)"/><path d="m38.306 98.386c13.976 9.05 40.609-7.928 57.238-29.47 2.624-3.371 7.78-5.241 9.506-2.8-3-11.532-10.648-12.488-16.206-10.467-4.781 1.738-33.332 13.104-50.538 42.737z"/><path d="m39.575 99.294c-13.065-10.323-5.552-41 9.5-63.674 2.348-3.568 2.46-9.052-.405-9.9 11.882-.867 15.247 6.065 15.12 11.98-.109 5.084-1.69 35.773-24.215 61.594z"/></g><path d="m100.93 40.58q-.645 1.605-1.35 3.24c-.84 1.96-1.73 3.93-2.68 5.94v.01c-.42.91-.86 1.81-1.31 2.73a221.581 221.581 0 0 1 -18.41 30.91c-20.53 28.65-37.3 35.07-47.22 27.96s-9.23-25.04 11.3-53.7a221.7 221.7 0 0 1 23.34-27.36q1.08-1.08 2.16-2.13c1.6-1.54 3.2-3.03 4.78-4.45.88-.8 1.76-1.57 2.63-2.32 12.99-11.2 24.82-17.62 30.14-13.81s3.04 17.07-3.38 32.98z" fill="#f3d232"/><path d="m29.962 111.372c-13.536-9.7-6.457-41.5 8.45-65.638 2.178-3.674.076-7.57-2.827-8.284 11.831-1.424 15.518 5.343 15.67 11.255.13 5.085-.006 35.815-21.293 62.667z" fill="#c7e554"/><path d="m29.962 111.372c13.538 9.698 41.368-7.231 59.438-29.109 2.779-3.244 7.144-2.506 8.754.012-2.462-11.66-10.054-12.975-15.701-11.217-4.853 1.512-33.911 11.523-52.491 40.314z" fill="#c7e554"/></g><g fill="#190d28"><path d="m106.213 24.313a1.749 1.749 0 0 0 -2.12 1.276c-.261 1.05-.559 2.148-.886 3.265a1.75 1.75 0 1 0 3.359.983c.34-1.163.651-2.309.923-3.4a1.748 1.748 0 0 0 -1.276-2.124z"/><path d="m105.33 6.178c-8.355-5.989-26.669 7.651-42.2 23.16-2.062-2.87-6.232-5.973-14.586-5.363a1.75 1.75 0 0 0 -.371 3.422 1.166 1.166 0 0 1 .663.8 8.21 8.21 0 0 1 -1.218 6.445c-.516.772-1.03 1.579-1.541 2.4-2.844-1.4-6.424-1.845-10.694-1.332a1.75 1.75 0 0 0 -.207 3.437 3.237 3.237 0 0 1 2.089 1.938 4.056 4.056 0 0 1 -.342 3.724 120.475 120.475 0 0 0 -7.793 14.879 1.75 1.75 0 0 0 3.205 1.405 117.156 117.156 0 0 1 7.58-14.469 7.619 7.619 0 0 0 .575-6.891c-.1-.229-.2-.451-.319-.665a10.589 10.589 0 0 1 6.214 2.34 10.012 10.012 0 0 1 3.115 7.337 101.1 101.1 0 0 1 -15.76 54.345c-.014.021-.021.045-.034.067-.756.96-1.5 1.937-2.238 2.947.047-12.7 4.61-27.432 7.772-37.594 1.87-6.02 3.22-10.37 3.28-12.84a1.746 1.746 0 0 0 -1.7-1.8h-.05a1.74 1.74 0 0 0 -1.74 1.7c-.06 2-1.48 6.59-3.13 11.9-3.29 10.568-8.059 25.945-7.933 39.361-.025-.036-.054-.067-.078-.1-4.868-7.18-4.423-21.131 1.188-37.331a1.75 1.75 0 1 0 -3.306-1.147c-5.812 16.777-6.3 31-1.424 39.377l-5.039 7.034a1.751 1.751 0 0 0 .4 2.442l8.119 5.82a1.746 1.746 0 0 0 1.02.328 1.835 1.835 0 0 0 .285-.023 1.752 1.752 0 0 0 1.137-.708l5.033-7.028a21.088 21.088 0 0 0 4.089.388c15.413 0 36.7-14.76 51.331-32.478a4.062 4.062 0 0 1 3.434-1.543 3.254 3.254 0 0 1 2.515 1.36 1.75 1.75 0 0 0 3.187-1.3c-1.181-5.609-3.59-9.516-7.16-11.61a11.781 11.781 0 0 0 -3.993-1.436c2.377-4.013 4.619-8.066 6.684-12.091 2.959.664 5.287 2.867 6.853 6.493a11.046 11.046 0 0 0 -5.9 2.412 1.75 1.75 0 0 0 2.142 2.767 6.72 6.72 0 0 1 4.454-1.666.889.889 0 0 1 .68.348 1.75 1.75 0 0 0 3.121-1.452c-2.106-8.1-6.369-11.059-9.743-12.092a171.046 171.046 0 0 0 7.611-17.758 1.75 1.75 0 0 0 -3.3-1.176c-.565 1.585-1.195 3.217-1.856 4.87l-.777-.557a1.751 1.751 0 1 0 -2.039 2.846l1.45 1.039c-.808 1.9-1.688 3.83-2.6 5.779l-2.468-1.769a1.751 1.751 0 0 0 -2.039 2.846l2.979 2.134c-.915 1.864-1.883 3.742-2.877 5.625a1.7 1.7 0 0 0 -.261-.231l-3.459-2.478a1.751 1.751 0 0 0 -2.033 2.835l3.459 2.478a1.715 1.715 0 0 0 .751.286c-1.174 2.145-2.4 4.286-3.662 6.419a1.743 1.743 0 0 0 -.707-1.655l-3.459-2.479a1.751 1.751 0 0 0 -2.039 2.851l3.459 2.479a1.727 1.727 0 0 0 2.052-.022c-.166.277-.328.556-.495.834a15.891 15.891 0 0 0 -2.754.6c-1 .31-2.734.89-5.008 1.788l-.874-.627a1.746 1.746 0 0 0 -2.63 2.095c-2.207.974-4.7 2.169-7.41 3.626a1.748 1.748 0 0 0 -.728-1.488l-3.459-2.485a1.75 1.75 0 1 0 -2.039 2.845l3.459 2.479a1.78 1.78 0 0 0 .175.087c-1.857 1.066-3.785 2.247-5.761 3.552l-1.487-1.063a1.748 1.748 0 1 0 -2.04 2.84l.456.328a103.912 103.912 0 0 0 -11.045 9.05 104.173 104.173 0 0 0 5.009-13.369l.46.331a1.769 1.769 0 0 0 1.02.33 1.75 1.75 0 0 0 1.02-3.17l-1.495-1.073c.6-2.29 1.095-4.493 1.507-6.593a1.6 1.6 0 0 0 .15.133l3.459 2.478a1.75 1.75 0 0 0 2.039-2.845l-3.459-2.479a1.752 1.752 0 0 0 -1.658-.2c.511-3.041.845-5.8 1.058-8.206.039 0 .078.018.117.018a1.75 1.75 0 0 0 1.019-3.173l-.873-.625c.122-2.488.111-4.325.085-5.316a15.916 15.916 0 0 0 -.319-2.794l.636-.751a1.748 1.748 0 0 0 .637 1.963l3.459 2.479a1.751 1.751 0 0 0 2.039-2.846l-3.459-2.478a1.742 1.742 0 0 0 -1.821-.124q2.447-2.849 4.918-5.535a1.73 1.73 0 0 0 .521.609l3.459 2.478a1.75 1.75 0 1 0 2.039-2.845l-3.459-2.479a1.764 1.764 0 0 0 -.312-.178c.867-.917 1.734-1.823 2.6-2.706a1.673 1.673 0 0 0 .144-.148c.556-.567 1.111-1.123 1.666-1.676l2.982 2.137a1.751 1.751 0 0 0 2.039-2.846l-2.481-1.777q2.349-2.259 4.647-4.313l1.452 1.04a1.75 1.75 0 0 0 2.039-2.845l-.789-.566c12.645-10.829 23.439-16.458 27.654-13.437 1.961 1.408 2.649 4.984 1.99 10.344a1.751 1.751 0 0 0 3.475.428c.836-6.805-.317-11.386-3.425-13.615zm-76.884 112.88-5.274-3.782 3.342-4.664a15.763 15.763 0 0 0 2.423 2.179 15.537 15.537 0 0 0 2.845 1.6zm54.527-46.329a10.011 10.011 0 0 1 7.957.594 10.607 10.607 0 0 1 4.215 5.134 7.33 7.33 0 0 0 -.742-.09 7.621 7.621 0 0 0 -6.357 2.781c-15.824 19.165-39.556 34.607-53.183 30.658 12.753-4.189 25.8-13.661 34.757-20.176 4.5-3.27 8.39-6.09 10.26-6.78a1.753 1.753 0 1 0 -1.21-3.29c-2.33.86-6.01 3.54-11.1 7.24-8.7 6.318-21.333 15.5-33.442 19.573 14.322-19.849 33.378-29.612 43.238-33.609.043-.018.088-.031.129-.053 2.514-1.011 4.425-1.655 5.478-1.982zm-34.014-33.692c.52-.838 1.044-1.664 1.573-2.455a11.832 11.832 0 0 0 1.739-9.121c3.933.32 6.767 1.824 8.348 4.424-3.312 3.415-6.459 6.868-9.309 10.184a11.849 11.849 0 0 0 -2.351-3.032z"/><path d="m88.613 24.111a1.75 1.75 0 1 0 2.039-2.845l-3.46-2.479a1.751 1.751 0 0 0 -2.039 2.846z"/><path d="m98.2 30.581a1.75 1.75 0 0 0 1.022-3.173l-3.456-2.478a1.75 1.75 0 1 0 -2.039 2.845l3.459 2.479a1.741 1.741 0 0 0 1.014.327z"/><path d="m79.094 27.086a1.751 1.751 0 0 0 .4 2.442l3.459 2.479a1.751 1.751 0 0 0 2.047-2.846l-3.459-2.478a1.752 1.752 0 0 0 -2.447.403z"/><path d="m92.546 38.477a1.75 1.75 0 0 0 1.021-3.177l-3.459-2.479a1.751 1.751 0 0 0 -2.039 2.846l3.459 2.478a1.745 1.745 0 0 0 1.018.332z"/><path d="m101 18.884a1.752 1.752 0 0 0 -.4-2.443l-3.459-2.478a1.751 1.751 0 1 0 -2.041 2.846l3.459 2.478a1.752 1.752 0 0 0 2.442-.4z"/><path d="m73.437 34.983a1.75 1.75 0 0 0 .4 2.442l3.463 2.475a1.75 1.75 0 1 0 2.037-2.845l-3.459-2.478a1.751 1.751 0 0 0 -2.441.406z"/><path d="m86.889 46.372a1.75 1.75 0 0 0 1.021-3.172l-3.459-2.478a1.75 1.75 0 0 0 -2.039 2.845l3.459 2.479a1.744 1.744 0 0 0 1.018.326z"/><path d="m67.779 42.879a1.749 1.749 0 0 0 .405 2.441l3.459 2.48a1.75 1.75 0 0 0 2.037-2.846l-3.459-2.477a1.752 1.752 0 0 0 -2.442.402z"/><path d="m81.231 54.268a1.75 1.75 0 0 0 1.022-3.168l-3.459-2.479a1.751 1.751 0 0 0 -2.039 2.846l3.459 2.478a1.742 1.742 0 0 0 1.017.323z"/><path d="m67 56.021a1.75 1.75 0 0 0 1.02-3.173l-3.457-2.478a1.75 1.75 0 0 0 -2.037 2.846l3.459 2.477a1.742 1.742 0 0 0 1.015.328z"/><path d="m75.574 62.163a1.75 1.75 0 0 0 1.026-3.173l-3.459-2.478a1.75 1.75 0 1 0 -2.041 2.845l3.459 2.479a1.741 1.741 0 0 0 1.015.327z"/><path d="m58.907 58.266a1.75 1.75 0 0 0 -2.039 2.845l3.459 2.479a1.751 1.751 0 1 0 2.039-2.846z"/><path d="m65.441 67.253 3.459 2.478a1.75 1.75 0 1 0 2.039-2.845l-3.459-2.479a1.751 1.751 0 0 0 -2.039 2.846z"/></g></g></svg>