<?xml version="1.0" encoding="iso-8859-1"?>
<!-- Generator: Adobe Illustrator 19.0.0, SVG Export Plug-In . SVG Version: 6.00 Build 0)  -->
<svg version="1.1" id="Layer_1" xmlns="http://www.w3.org/2000/svg" xmlns:xlink="http://www.w3.org/1999/xlink" x="0px" y="0px"
	 viewBox="0 0 512.001 512.001" style="enable-background:new 0 0 512.001 512.001;" xml:space="preserve">
<path style="fill:#FFD41D;" d="M503.632,166.815c-25.923,83.626-96.961,147.077-184.214,162.499h-0.011
	c-14.842,2.622-30.163,3.85-45.808,3.56c-4.04-0.078-8.046-0.257-12.03-0.536L80.39,299.173l-46.132-95.22l37.773-17.698
	l29.895-28.79c5.602,4.218,11.36,8.235,17.263,12.063c45.183,29.237,98.814,46.645,156.595,47.739
	c75.469,1.428,144.923-25.22,198.42-70.347L503.632,166.815z"/>
<path style="fill:#4D4D4D;" d="M9.093,178.012c0,0,22.282-45.359,36.928-98.786l22.498,2.728c0,0-14.878,54.228-7.433,82.236"/>
<path style="fill:#E2BA14;" d="M319.406,329.314c-14.842,2.622-30.163,3.85-45.808,3.56c-4.04-0.078-8.046-0.257-12.03-0.536
	L80.39,299.173l-46.132-95.22l37.773-17.698l29.895-28.79c5.602,4.218,11.36,8.235,17.263,12.063
	C119.703,171.736,153.181,312.72,319.406,329.314z"/>
<path style="fill:#4D4D4D;" d="M63.175,194.781c0,0-2.53-50.474-15.652-104.294l20.996-8.532c0,0,13.307,54.634,33.409,75.51"/>
<path style="fill:#FFD41D;" d="M407.797,367.299c-30.632,29.315-68.204,49.357-108.321,58.953
	c-56.856,13.614-118.833,6.26-173.401-25.387C44.882,353.774,2.221,265.718,9.095,178.008l26.748-7.108l25.242-6.707
	c24.717,55.427,66.486,103.869,123.007,136.654c65.292,37.863,138.953,48.274,207.626,34.772L407.797,367.299z"/>
<path style="fill:#E2BA14;" d="M299.476,426.253c-56.856,13.614-118.833,6.26-173.401-25.387
	C44.882,353.774,2.221,265.718,9.095,178.008l26.748-7.108c0,0-22.106,228.438,263.6,255.353H299.476z"/>
<g>
	<path style="fill:#4D4D4D;" d="M391.717,335.613l16.08,31.681c-7.432,7.108-15.277,13.681-23.468,19.685l-14.953-47.839
		C376.876,338.247,384.319,337.064,391.717,335.613z"/>
	<path style="fill:#4D4D4D;" d="M474.205,146.918l29.426,19.897c-3.225,10.389-7.131,20.466-11.695,30.174l-37.773-34.56
		C461.06,157.542,467.755,152.364,474.205,146.918z"/>
</g>
<path d="M54.631,215.838c-1.36-4.417-6.044-6.895-10.462-5.536c-4.417,1.36-6.896,6.044-5.536,10.462
	c6.996,22.719,17.213,44.23,30.369,63.935c1.614,2.417,4.265,3.723,6.968,3.723c1.597,0,3.212-0.456,4.64-1.411
	c3.844-2.567,4.88-7.763,2.313-11.608C70.668,257.048,61.149,237.007,54.631,215.838z"/>
<path d="M149.63,360.262c11.945,6.928,24.505,12.871,37.334,17.664c0.965,0.36,1.955,0.532,2.929,0.532
	c3.392,0,6.584-2.078,7.84-5.441c1.618-4.33-0.58-9.152-4.91-10.77c-11.952-4.466-23.659-10.006-34.795-16.464
	c-22.768-13.205-42.849-29.992-59.683-49.897c-2.984-3.529-8.264-3.972-11.795-0.985c-3.53,2.985-3.97,8.266-0.985,11.795
	C103.641,328.07,125.196,346.093,149.63,360.262z"/>
<path d="M323.097,387.927c4.522-0.962,7.406-5.407,6.444-9.927s-5.405-7.405-9.927-6.444c-31.544,6.71-63.445,6.72-94.815,0.025
	c-4.521-0.964-8.967,1.918-9.932,6.439s1.918,8.966,6.439,9.932c16.826,3.59,33.787,5.385,50.776,5.385
	C289.103,393.335,306.15,391.531,323.097,387.927z"/>
<path d="M508.32,159.882l-29.426-19.897c-3.101-2.098-7.221-1.879-10.084,0.536c-53.853,45.428-122.358,69.707-192.865,68.376
	c-42.748-0.811-83.743-10.651-121.846-29.249c-4.155-2.026-9.165-0.304-11.193,3.851c-2.028,4.153-0.304,9.165,3.851,11.193
	c40.31,19.673,83.669,30.084,128.871,30.942c63.595,1.212,125.601-17.287,177.798-52.534l28.224,25.811
	c-16.159,32.039-39.902,60.294-69.013,81.647c-40.496,29.702-88.515,44.909-138.875,43.949c-3.526-0.068-7.065-0.229-10.549-0.456
	c-26.06-6.562-51.292-16.742-74.922-30.448c-44.412-25.757-80.535-61.992-105.793-105.808l20.159-19.415
	c5.98,4.283,12.14,8.369,18.378,12.194c3.942,2.417,9.095,1.178,11.509-2.762c2.416-3.941,1.178-9.094-2.762-11.509
	c-7.609-4.663-15.086-9.746-22.246-15.102c-14.994-16.082-27.362-56.772-30.889-71.232c-0.006-0.022-0.017-0.041-0.023-0.064
	c-0.233-0.922-0.616-1.809-1.158-2.616c-1.357-2.02-3.525-3.35-5.94-3.643l-22.498-2.727c-4.115-0.501-7.982,2.093-9.079,6.095
	c-14.25,51.985-36.149,96.862-36.367,97.309c-0.029,0.058-0.041,0.118-0.064,0.177c-0.412,0.886-0.689,1.845-0.769,2.858
	c-3.546,45.29,5.571,90.635,26.366,131.135c21.361,41.6,54.129,76.046,94.766,99.614c29.811,17.29,62.162,27.928,96.152,31.616
	c4.592,0.495,8.724-2.822,9.223-7.417c0.499-4.595-2.822-8.724-7.417-9.223c-31.651-3.435-61.783-13.345-89.559-29.456
	c-37.856-21.956-68.381-54.038-88.273-92.78c-18.475-35.982-27.059-76.064-24.953-116.291l39.373-10.467
	c26.664,56.309,69.227,102.535,123.467,133.993c55.766,32.344,119.95,46.199,183.539,40.091l11.109,35.551
	c-37.804,26.325-82.788,40.591-129.769,40.683c-4.622,0.009-8.362,3.764-8.353,8.386c0.009,4.617,3.754,8.354,8.369,8.353
	c0.006,0,0.011,0,0.017,0c63.294-0.124,123.234-24.203,168.778-67.804c2.665-2.551,3.344-6.545,1.675-9.833l-16.081-31.682
	c-1.696-3.34-5.404-5.148-9.078-4.423c-15.722,3.091-31.575,4.844-47.405,5.313c28.499-7.776,55.442-20.766,79.841-38.661
	c42.083-30.866,73.723-75.173,89.091-124.761C512.717,165.77,511.375,161.948,508.32,159.882z M69.033,161.443
	c-2.942-11.824-1.513-29.861,1.02-46.048c5.095,14.048,12.044,29.965,20.474,41.428l-16.258,15.657
	C72.452,168.846,70.705,165.168,69.033,161.443z M52.132,88.398l5.981,0.725c-3.558,15.358-9.585,46.278-6.68,68.973l-27.343,7.269
	C31.454,148.538,42.884,120.36,52.132,88.398z M397.482,365.467c-2.86,2.595-5.783,5.102-8.754,7.536l-8.41-26.909
	c2.258-0.344,4.514-0.713,6.767-1.108L397.482,365.467z M467.322,163.126c2.484-1.887,4.952-3.8,7.384-5.766l19.018,12.859
	c-1.458,4.278-3.052,8.51-4.768,12.691L467.322,163.126z"/>
<path d="M126.762,222.097c-2.857,3.635-2.225,8.896,1.409,11.752c42.075,33.063,92.672,51.076,146.319,52.091
	c0.054,0.001,0.107,0.001,0.162,0.001c4.548,0,8.278-3.643,8.365-8.211c0.088-4.621-3.588-8.439-8.21-8.526
	c-49.976-0.945-97.105-17.722-136.294-48.516C134.881,217.832,129.618,218.463,126.762,222.097z"/>
<path d="M312.301,283.674c0.388,0,0.781-0.027,1.176-0.083c32.681-4.599,63.597-15.598,91.893-32.692
	c3.956-2.39,5.226-7.535,2.835-11.492c-2.39-3.956-7.535-5.228-11.492-2.836c-26.35,15.92-55.139,26.161-85.569,30.444
	c-4.577,0.644-7.766,4.877-7.122,9.454C304.613,280.652,308.196,283.674,312.301,283.674z"/>
<path d="M421.022,238.604c1.752,0,3.52-0.549,5.027-1.684c12.025-9.054,23.28-19.276,33.451-30.384
	c3.121-3.409,2.889-8.703-0.52-11.824c-3.409-3.122-8.704-2.889-11.824,0.52c-9.479,10.351-19.967,19.878-31.174,28.316
	c-3.693,2.781-4.432,8.028-1.652,11.72C415.974,237.453,418.482,238.604,421.022,238.604z"/>
<g>
</g>
<g>
</g>
<g>
</g>
<g>
</g>
<g>
</g>
<g>
</g>
<g>
</g>
<g>
</g>
<g>
</g>
<g>
</g>
<g>
</g>
<g>
</g>
<g>
</g>
<g>
</g>
<g>
</g>
</svg>
